<?xml version="1.0" encoding="utf-8"?>
<!-- Generator: Adobe Illustrator 16.0.0, SVG Export Plug-In . SVG Version: 6.00 Build 0)  -->
<!DOCTYPE svg PUBLIC "-//W3C//DTD SVG 1.1//EN" "http://www.w3.org/Graphics/SVG/1.1/DTD/svg11.dtd">
<svg version="1.1" id="Capa_1" xmlns="http://www.w3.org/2000/svg" xmlns:xlink="http://www.w3.org/1999/xlink" x="0px" y="0px"
	 width="491px" height="207px" viewBox="0 0 491 207" enable-background="new 0 0 491 207" xml:space="preserve">
<g>
	<path fill="#B4EBDD" d="M113.639,19.176c-3.822-2.439-8.228-3.728-12.735-3.728c-6.296,0-12.204,2.448-16.588,6.726l38.959,24.854
		C126.818,36.874,123.066,25.19,113.639,19.176z"/>
	<path fill="#FFB929" d="M39.505,84.525c-0.26-9.045-1.763-18.375-2.678-22.71c-0.325-1.54,0.062-3.146,1.054-4.37
		c0.992-1.224,2.482-1.934,4.057-1.934H65.38c-2.468-10.476-11.886-18.298-23.104-18.298c-13.091,0-23.74,10.65-23.74,23.74
		C18.538,73.105,27.717,83.148,39.505,84.525z"/>
	<g>
		<path fill="none" d="M37.881,57.445c0.992-1.223,2.482-1.935,4.057-1.935H65.38c-2.468-10.475-11.886-18.297-23.104-18.297
			c-13.09,0-23.739,10.65-23.739,23.739c0,12.153,9.179,22.195,20.968,23.573c-0.261-9.044-1.764-18.375-2.679-22.71
			C36.502,60.274,36.889,58.667,37.881,57.445z"/>
		<path fill="none" d="M49.412,75.661c0.292,3.025,0.476,5.887,0.553,8.582h0.001C49.888,81.547,49.703,78.687,49.412,75.661
			c-0.354-3.677-0.814-7.027-1.235-9.702h46.321l0,0H48.176C48.597,68.632,49.057,71.982,49.412,75.661z"/>
		<path fill="none" d="M113.639,19.176c-3.823-2.439-8.228-3.728-12.735-3.728c-6.295,0-12.204,2.448-16.588,6.726l38.959,24.854
			C126.818,36.874,123.066,25.19,113.639,19.176z"/>
		<path fill="none" d="M95.033,103.881c-0.887-2.572-1.52-5.273-1.893-9.191v0.001H49.619c-0.367,3.918-0.997,6.617-1.884,9.19
			c-0.332,0.969-0.753,2.174-1.238,3.441c-1.979,5.164-5.128,13.384-5.041,20.779c0.04,3.375,0.753,6.58,2.56,9.242
			c4.031,5.941,13.259,9.053,27.428,9.242c6.089-0.082,11.256-0.711,15.496-1.869c5.613-1.533,9.596-4,11.884-7.377
			c1.794-2.648,2.503-5.838,2.542-9.199c0.076-7.387-3.084-15.604-5.069-20.767C95.798,106.085,95.371,104.862,95.033,103.881z"/>
		<path fill="#FFFFFF" d="M119.259,10.368C113.754,6.856,107.407,5,100.904,5c-11.649,0-22.382,5.828-28.712,15.589
			c-0.757,1.168-1.018,2.59-0.722,3.951c0.295,1.361,1.122,2.547,2.295,3.296L93.59,40.483l-9.587,15.028h-7.977
			c-2.615-16.273-16.75-28.746-33.75-28.746c-18.851,0-34.188,15.336-34.188,34.188c0,17.778,13.642,32.423,31.005,34.035
			c-0.269,2.057-0.67,3.954-1.238,5.596c-0.276,0.8-0.667,1.819-1.119,3c-3.563,9.3-10.306,26.613-1.479,39.626
			c5.461,8.052,15.723,12.612,30.742,13.612v31.9H44.015c-2.885,0-5.224,2.338-5.224,5.223c0,2.886,2.339,5.226,5.224,5.226h54.852
			c2.885,0,5.225-2.34,5.225-5.226c0-2.885-2.34-5.223-5.225-5.223h-22.42v-31.9c15.02-1,25.467-5.555,30.914-13.594
			c8.805-12.996,2.203-30.305-1.371-39.603c-0.461-1.199-0.832-2.234-1.11-3.042c-3.642-10.563-0.558-31.582,0.931-38.789
			c0.32-1.539-0.064-3.14-1.057-4.358c-0.991-1.219-2.473-1.927-4.044-1.927h-4.316l6.003-9.408l20.193,12.882
			c0.846,0.54,1.822,0.82,2.81,0.82c0.383,0,0.768-0.042,1.147-0.127c1.357-0.306,2.537-1.14,3.278-2.319
			C139.773,41.511,135.033,20.432,119.259,10.368z M94.498,65.958L94.498,65.958H94.5c-0.41,2.677-0.859,6.034-1.203,9.72
			c-0.281,3.019-0.455,5.875-0.525,8.564H49.966l0,0h-0.001c-0.077-2.695-0.261-5.556-0.553-8.582
			c-0.355-3.678-0.815-7.028-1.236-9.702H94.498z M18.539,60.952c0-13.089,10.648-23.739,23.739-23.739
			c11.218,0,20.635,7.822,23.104,18.297H41.938c-1.575,0-3.065,0.711-4.057,1.935c-0.992,1.223-1.379,2.829-1.054,4.37
			c0.915,4.335,2.417,13.666,2.679,22.71C27.718,83.147,18.539,73.105,18.539,60.952z M101.365,128.143
			c-0.039,3.36-0.748,6.551-2.542,9.198c-2.288,3.378-6.271,5.843-11.884,7.377c-4.239,1.158-9.406,1.787-15.496,1.869
			c-14.168-0.188-23.396-3.301-27.428-9.241c-1.807-2.664-2.521-5.867-2.56-9.242c-0.088-7.396,3.061-15.615,5.041-20.78
			c0.485-1.269,0.906-2.474,1.238-3.441c0.888-2.573,1.518-5.272,1.884-9.19h43.521V94.69c0.373,3.918,1.006,6.619,1.893,9.191
			c0.338,0.981,0.766,2.204,1.263,3.494C98.281,112.538,101.441,120.755,101.365,128.143z M123.275,47.027L84.316,22.173
			c4.384-4.278,10.293-6.726,16.588-6.726c4.508,0,8.912,1.289,12.735,3.728C123.066,25.19,126.818,36.874,123.275,47.027z"/>
	</g>
	<path fill="#FFFFFF" d="M71.443,146.575c-14.168-0.191-23.396-3.315-27.428-9.259c-1.801-2.653-2.517-5.85-2.56-9.215
		c0.04,3.375,0.753,6.58,2.56,9.242c4.031,5.942,13.259,9.053,27.428,9.242c6.087-0.082,11.255-0.711,15.496-1.869
		C82.699,145.868,77.531,146.492,71.443,146.575z"/>
	<path fill="#FF8500" d="M49.619,94.69c-0.367,3.918-0.996,6.618-1.884,9.19c-0.333,0.968-0.753,2.173-1.239,3.441
		c-1.979,5.165-5.128,13.385-5.04,20.778c0.043,3.367,0.759,6.563,2.56,9.217c4.031,5.941,13.259,9.066,27.428,9.256
		c6.087-0.081,11.255-0.704,15.496-1.854c5.615-1.534,9.596-3.999,11.884-7.378c1.794-2.648,2.503-5.837,2.542-9.199
		c0.076-7.387-3.084-15.603-5.07-20.767c-0.496-1.289-0.924-2.513-1.262-3.494c-0.887-2.572-1.52-5.272-1.893-9.19H49.619
		L49.619,94.69z"/>
</g>
<g enable-background="new    ">
	<path fill="#FFFFFF" d="M194.57,105.819c0.056,1.188-0.369,3.422-1.272,6.701c-6.108,21.546-15.1,32.319-26.976,32.319
		c-6.334,0-11.282-2.063-14.845-6.192c-3.28-3.902-4.92-9.076-4.92-15.523c0-5.542,1.13-11.876,3.393-19.002
		c3.279-10.234,7.605-15.354,12.979-15.354c3.224,0,5.966,1.669,8.229,5.005c1.979,2.941,3.082,6.137,3.308,9.586
		c0.509,7.069-1.951,10.604-7.38,10.604c-3.168,0-4.75-2.347-4.75-7.041c-3.28,4.75-4.92,10.293-4.92,16.626
		c0,1.019,0.028,1.924,0.085,2.715c0.452,6.222,2.261,9.331,5.429,9.331c5.938,0,10.546-2.63,13.827-7.889
		c1.13-1.81,3.251-7.012,6.362-15.608c2.206-6.108,4.778-9.671,7.72-10.688C193.155,102.031,194.4,103.501,194.57,105.819z"/>
	<path fill="#FFFFFF" d="M213.23,114.642c0.112,1.471,0.169,2.658,0.169,3.563c0,6.107-1.217,11.509-3.647,16.202
		c-3.507,6.73-8.822,10.095-15.948,10.095c-4.92,0-8.597-1.866-11.028-5.599c-1.979-3.109-2.969-7.267-2.969-12.47
		c0-10.858,2.573-20.133,7.719-27.824c3.279-4.92,6.587-7.38,9.925-7.38c2.375,0,5.146,1.442,8.313,4.326
		c0.225,0.905,0.367,1.98,0.424,3.224C210.374,102.398,212.721,107.686,213.23,114.642z M201.694,119.73
		c-1.923-2.431-3.083-3.93-3.478-4.495c-1.132-1.81-1.754-3.591-1.866-5.345c-0.057-0.961-0.057-2.205,0-3.732
		c-3.45,5.09-5.175,11.481-5.175,19.171c0,3.338,0.311,6.165,0.933,8.483c0.452,1.075,1.498,1.866,3.139,2.375
		C198.356,134.888,200.506,129.401,201.694,119.73z"/>
	<path fill="#FFFFFF" d="M266.501,105.819c0.056,1.188-0.368,3.422-1.272,6.701c-6.107,21.546-15.1,32.319-26.975,32.319
		c-6.334,0-11.282-2.063-14.845-6.192c-3.28-3.902-4.92-9.076-4.92-15.523c0-5.542,1.13-11.876,3.393-19.002
		c3.279-10.234,7.605-15.354,12.979-15.354c3.224,0,5.966,1.669,8.229,5.005c1.979,2.941,3.081,6.137,3.308,9.586
		c0.51,7.069-1.951,10.604-7.379,10.604c-3.168,0-4.75-2.347-4.75-7.041c-3.28,4.75-4.92,10.293-4.92,16.626
		c0,1.019,0.028,1.924,0.085,2.715c0.452,6.222,2.261,9.331,5.429,9.331c5.938,0,10.546-2.63,13.827-7.889
		c1.13-1.81,3.251-7.012,6.361-15.608c2.206-6.108,4.778-9.671,7.72-10.688C265.087,102.031,266.331,103.501,266.501,105.819z"/>
	<path fill="#FFFFFF" d="M310.44,99.881c0.113,1.414-0.905,5.429-3.054,12.046c-5.655,17.645-14.195,26.466-25.618,26.466
		c-3.959,0-10.151-3.76-18.577-11.281c-0.227,0.622-0.538,3.534-0.934,8.737c-0.283,3.507-1.357,6.164-3.224,7.974
		c-0.848,0.227-1.641,0.339-2.375,0.339c-4.185,0-6.418-1.894-6.701-5.684c-0.112-1.357,0.396-5.599,1.527-12.724
		c3.278-21.207,8.283-45.581,15.014-73.122c0.904-3.732,2.97-11.507,6.193-23.328c1.188-0.452,2.572-0.679,4.156-0.679
		c4.581,0,7.041,2.008,7.38,6.023c0.056,0.962-0.735,4.072-2.375,9.331l-7.465,23.752c-3.111,9.896-5.175,17.786-6.192,23.667
		c4.127-4.354,8.114-6.532,11.961-6.532c2.318,0,4.947,1.387,7.889,4.157c2.94,2.771,4.496,5.316,4.666,7.634
		c0.339,4.92-1.557,10.01-5.684,15.27c-3.79,4.808-8.173,8.2-13.148,10.18c4.693,4.186,7.974,6.276,9.84,6.276
		c5.033,0,11.452-10.659,19.256-31.979c1.357-0.396,3.394-0.564,6.107-0.509C309.932,97.309,310.384,98.638,310.44,99.881z
		 M281.43,94.028l-0.255-0.085c-5.543,3.507-10.548,9.954-15.015,19.341v0.424l2.8,0.255c3.448-1.753,6.332-4.524,8.652-8.313
		C279.931,101.861,281.203,97.987,281.43,94.028z"/>
	<path fill="#FFFFFF" d="M335.973,98.863c-0.114,8.144-2.234,16.768-6.362,25.872c-4.977,10.973-10.942,16.457-17.898,16.457
		c-8.652,0-13.432-6.39-14.336-19.171c-0.17-2.376-0.255-4.581-0.255-6.617c0-6.672,1.357-18.944,4.072-36.815l-2.715-0.509
		l1.104-0.509c-5.882-0.904-8.963-3.082-9.247-6.532c0-0.112,0.029-0.763,0.085-1.95c1.811,0,3.987-0.141,6.532-0.425
		c1.073-0.112,2.996-0.31,5.768-0.594c0.792-1.752,1.471-4.015,2.036-6.786c0.679-3.393,1.216-5.739,1.612-7.041
		c2.091-6.898,4.947-10.349,8.567-10.349c0.621,0,2.487,0.509,5.599,1.527c1.018,1.018,1.582,2.263,1.696,3.733
		c0.056,0.848-0.085,1.611-0.424,2.29c-1.811,3.507-3.507,9.049-5.09,16.626c0.849,0,2.121-0.17,3.817-0.509
		s2.969-0.509,3.817-0.509l3.224,1.625c3.223,1.652,4.92,4.104,5.089,7.353l0.085,1.796l-18.492,0.762
		c-3.62,15.302-5.429,29.108-5.429,41.416c0,8.188,0.876,12.281,2.629,12.281c3.055,0,6.532-4.693,10.435-14.081
		c1.243-3.054,3.363-9.246,6.362-18.577c1.073-0.622,2.232-0.934,3.478-0.934c0.452,0,1.158,0.029,2.121,0.085
		C334.813,98.835,335.52,98.863,335.973,98.863z"/>
	<path fill="#FFFFFF" d="M380.252,103.698c-1.134,7.918-3.603,16.032-7.4,24.346c-5.106,11.142-10.579,16.711-16.421,16.711
		c-5.162,0-9.047-2.29-11.655-6.871c-3.46,4.978-6.665,7.465-9.614,7.465c-7.998,0-12.279-4.071-12.847-12.215
		c0-1.696,0-2.827,0-3.394c0-6.107,1.132-12.667,3.394-19.68c2.939-9.161,7.012-15.41,12.215-18.747
		c1.074-0.679,2.347-1.018,3.817-1.018c3.054,0,5.654,1.188,7.805,3.563c1.357-0.564,2.714-0.849,4.071-0.849
		c2.318,0,4.496,0.963,6.532,2.885l-3.846,17.22c-1.622,7.353-2.263,13.233-1.923,17.645c0.228,3.054,0.512,4.665,0.854,4.835
		c3.188-1.64,6.604-6.672,10.247-15.1c0.626-1.47,3.188-7.521,7.685-18.153c0.854-0.339,1.678-0.509,2.477-0.509
		C377.179,101.832,378.715,102.455,380.252,103.698z M345.303,101.577c-0.057-0.961-0.283-1.441-0.678-1.441
		c-1.697,0-3.45,2.093-5.26,6.277c-3.902,8.991-5.854,17.334-5.854,25.024c0,1.018,0,2.008,0,2.969v1.272c0,0.227,0,0.424,0,0.594
		c0.17-0.056,0.367-0.141,0.594-0.255c2.997-2.884,5.712-8.313,8.144-16.287C344.567,112.153,345.586,106.103,345.303,101.577z"/>
	<path fill="#FFFFFF" d="M412.995,109.382c0.452,6.277-1.866,14.166-6.956,23.667c-5.543,10.406-11.254,15.608-17.135,15.608
		c-6.73,0-11.537-3.591-14.421-10.773c-1.754-4.354-2.884-10.546-3.393-18.577c-0.058-0.961,0.056-7.436,0.339-19.426
		c0.564-2.997,1.103-6.136,1.611-9.416c1.697-11.422,3.082-19.453,4.157-24.091c2.035-8.766,4.721-16.343,8.059-22.734
		c1.582-2.997,3.591-4.496,6.022-4.496c2.318,0,3.958,0.99,4.92,2.969c1.753,1.075,3.267,2.714,4.538,4.92
		c1.272,2.205,1.994,4.383,2.164,6.531c0.112,1.584,0.169,2.771,0.169,3.563c0,7.748-1.641,16.711-4.92,26.891
		c-1.244,3.901-4.44,12.329-9.585,25.278c-1.245,2.433-2.829,6.192-4.751,11.282c-0.396,1.641-0.481,3.932-0.254,6.871
		c0.564,7.861,2.346,11.791,5.344,11.791c2.657,0,5.854-4.382,9.586-13.148c3.109-7.295,5.089-13.317,5.938-18.068
		c1.243-1.64,2.346-2.46,3.309-2.46c1.188,0,2.346,0.368,3.478,1.103C412.345,107.403,412.938,108.309,412.995,109.382z
		 M383.814,90.635l0.764,0.085c4.92-15.131,7.889-28.646,8.907-40.548C388.79,62.753,385.566,76.24,383.814,90.635z"/>
	<path fill="#FFFFFF" d="M436.406,105.819c-1.866,6.673-3.987,13.517-6.362,20.528c-2.432,7.183-6.871,13.063-13.317,17.644
		c-1.924,1.357-4.214,2.036-6.871,2.036c-7.805,0-11.961-3.986-12.47-11.961c-0.34-4.862,0.042-10.434,1.145-16.711
		s2.588-11.706,4.454-16.287l1.95-1.441c0.792-0.226,1.668-0.34,2.63-0.34c4.072,0,6.221,1.612,6.447,4.835
		c0.056,0.905-0.085,2.065-0.424,3.479c-3.055,12.499-4.581,20.981-4.581,25.448c0,1.075,0.027,2.149,0.085,3.224l0.424,0.339
		c0.226,0.114,0.452,0.17,0.679,0.17c0.339,0,0.564-0.085,0.679-0.255c3.393-2.714,6.418-6.587,9.076-11.621
		c0.51-0.961,2.46-5.542,5.854-13.742c1.357-3.336,2.912-6.475,4.665-9.416C433.861,101.577,435.84,102.935,436.406,105.819z
		 M417.32,87.157c0.169,2.771-0.538,5.062-2.121,6.871c-1.584,1.811-3.732,2.714-6.447,2.714c-1.866,0-3.465-0.679-4.793-2.036
		c-1.329-1.356-2.078-2.996-2.247-4.92c-0.17-2.148,0.521-3.972,2.078-5.471c1.555-1.498,3.406-2.248,5.556-2.248
		c3.054,0,5.627,1.217,7.72,3.647C417.178,86.111,417.263,86.592,417.32,87.157z"/>
	<path fill="#FFFFFF" d="M480.007,103.698c-1.134,7.918-3.603,16.032-7.4,24.346c-5.106,11.142-10.579,16.711-16.421,16.711
		c-5.162,0-9.047-2.29-11.655-6.871c-3.46,4.978-6.665,7.465-9.614,7.465c-7.998,0-12.279-4.071-12.847-12.215
		c0-1.696,0-2.827,0-3.394c0-6.107,1.132-12.667,3.394-19.68c2.939-9.161,7.012-15.41,12.215-18.747
		c1.074-0.679,2.347-1.018,3.817-1.018c3.054,0,5.654,1.188,7.805,3.563c1.357-0.564,2.714-0.849,4.071-0.849
		c2.318,0,4.496,0.963,6.532,2.885l-3.846,17.22c-1.622,7.353-2.263,13.233-1.923,17.645c0.228,3.054,0.512,4.665,0.854,4.835
		c3.188-1.64,6.604-6.672,10.247-15.1c0.626-1.47,3.188-7.521,7.685-18.153c0.854-0.339,1.678-0.509,2.477-0.509
		C476.934,101.832,478.47,102.455,480.007,103.698z M445.058,101.577c-0.057-0.961-0.283-1.441-0.678-1.441
		c-1.697,0-3.45,2.093-5.26,6.277c-3.902,8.991-5.854,17.334-5.854,25.024c0,1.018,0,2.008,0,2.969v1.272c0,0.227,0,0.424,0,0.594
		c0.17-0.056,0.367-0.141,0.594-0.255c2.997-2.884,5.712-8.313,8.144-16.287C444.322,112.153,445.341,106.103,445.058,101.577z"/>
</g>
</svg>
